<?xml version="1.0" encoding="utf-8"?>
<!-- Generator: Adobe Illustrator 25.4.1, SVG Export Plug-In . SVG Version: 6.00 Build 0)  -->
<svg version="1.1" id="Layer_1" xmlns="http://www.w3.org/2000/svg" xmlns:xlink="http://www.w3.org/1999/xlink" x="0px" y="0px"
	 viewBox="0 0 306 125" style="enable-background:new 0 0 306 125;" xml:space="preserve">
<style type="text/css">
	.st0{fill:#A73439;}
	.st1{fill:#A85522;}
	.st2{fill:#53575A;}
	.st3{fill:#FFFFFF;}
	.st4{fill:none;stroke:#53575A;stroke-width:2;stroke-miterlimit:10;}
</style>
<g>
	<rect x="94.61" y="49.51" class="st0" width="44.77" height="44.77"/>
	<rect x="94.61" y="4.74" class="st1" width="44.77" height="44.77"/>
	<g>
		<path class="st2" d="M11.93,41.57H6.14V12.6H27c5.21,0,8.69,3.48,8.69,8.69c0,4.98-3.48,8.4-8.69,8.4H11.93V41.57z M11.93,24.48
			H27c1.74,0,2.9-1.16,2.9-2.9v-0.87c0-1.74-1.16-2.9-2.9-2.9H11.93V24.48z"/>
		<path class="st2" d="M54.23,12.6h20.86c5.21,0,8.69,3.48,8.69,8.69c0,4.63-3.01,7.88-7.59,8.34c0.41,0.46,0.81,0.98,1.04,1.39
			l6.55,10.54h-6.55l-7.36-11.88h-9.85v11.88h-5.79V12.6z M75.08,24.48c1.74,0,2.9-1.16,2.9-2.9v-0.87c0-1.74-1.16-2.9-2.9-2.9
			H60.02v6.66H75.08z"/>
		<path class="st3" d="M108.63,17.82v6.66h16.8v5.21h-16.8v6.66h22.6v5.21h-28.39V12.6h28.39v5.21H108.63z"/>
		<path class="st2" d="M165.23,24.77h0.41l9.04-12.17h5.21v28.97h-5.79V21.29h-0.12c0,0-0.58,1.85-1.62,3.24l-4.05,5.45h-5.79
			l-4.06-5.45c-1.04-1.39-1.62-3.24-1.62-3.24h-0.12v20.28h-5.79V12.6h5.21L165.23,24.77z"/>
		<path class="st2" d="M199.59,41.57V12.6h5.79v28.97H199.59z"/>
		<path class="st2" d="M231.68,17.82v6.66h16.8v5.21h-16.8v6.66h22.59v5.21h-28.39V12.6h28.39v5.21H231.68z"/>
		<path class="st2" d="M272.99,12.6h20.86c5.21,0,8.69,3.48,8.69,8.69c0,4.63-3.01,7.88-7.59,8.34c0.41,0.46,0.81,0.98,1.04,1.39
			l6.55,10.54h-6.55l-7.36-11.88h-9.85v11.88h-5.79V12.6z M293.85,24.48c1.74,0,2.9-1.16,2.9-2.9v-0.87c0-1.74-1.16-2.9-2.9-2.9
			h-15.06v6.66H293.85z"/>
	</g>
	<g>
		<path class="st3" d="M102.8,57.41h19.12c5.21,0,8.69,3.48,8.69,8.69c0,2.26-0.99,4.17-2.61,5.45c2.38,1.22,3.77,3.36,3.77,6.14
			c0,5.21-3.48,8.69-8.69,8.69H102.8V57.41z M121.92,69.29c1.74,0,2.9-1.16,2.9-2.9v-0.87c0-1.74-1.16-2.9-2.9-2.9h-13.32v6.66
			H121.92z M108.59,81.16h14.48c1.74,0,2.9-1.16,2.9-2.9V77.4c0-1.74-1.16-2.9-2.9-2.9h-14.48V81.16z"/>
		<path class="st2" d="M150.94,57.41h20.86c5.21,0,8.69,3.48,8.69,8.69c0,4.63-3.01,7.88-7.59,8.34c0.41,0.46,0.81,0.98,1.04,1.39
			l6.55,10.54h-6.55l-7.36-11.88h-9.85v11.88h-5.79V57.41z M171.8,69.29c1.74,0,2.9-1.16,2.9-2.9v-0.87c0-1.74-1.16-2.9-2.9-2.9
			h-15.06v6.66H171.8z"/>
		<path class="st2" d="M199.61,86.38V57.41h5.79v28.97H199.61z"/>
		<path class="st2" d="M247.99,74.5h6.2c-1.16,7.36-7.07,12.46-14.89,12.46c-8.69,0-15.06-6.37-15.06-15.06
			c0-8.69,6.37-15.06,15.06-15.06c7.82,0,13.73,5.1,14.89,12.46h-6.2c-0.99-4.17-4.35-6.95-8.69-6.95c-5.21,0-8.98,4.06-8.98,9.56
			c0,5.5,3.77,9.56,8.98,9.56C243.64,81.45,247,78.61,247.99,74.5z"/>
		<path class="st2" d="M285.01,73.23l-6.2,5.56v7.59h-5.79V57.41h5.79v14.02l15.58-14.02h8.23l-13.5,12.11l13.5,16.86h-7.07
			L285.01,73.23z"/>
	</g>
	<line class="st4" x1="6.3" y1="111.2" x2="215.87" y2="111.2"/>
	
		<rect x="250.17" y="67.64" transform="matrix(6.123234e-17 -1 1 6.123234e-17 148.2384 370.6363)" class="st2" width="18.52" height="87.13"/>
	<g>
		<path class="st3" d="M232.36,113.29c0-0.85-0.93-1.21-3.06-1.21c-3.36,0-4.8-0.89-4.8-3.04c0-2.17,1.7-3.33,4.89-3.33
			c2.93,0,4.89,1.36,4.89,3.4h-2.12c0-0.89-1.11-1.49-2.76-1.49c-1.81,0-2.76,0.49-2.76,1.42c0,0.81,0.85,1.13,2.87,1.13
			c3.51,0,4.99,0.96,4.99,3.12c0,2.25-1.79,3.46-5.1,3.46c-3.06,0-5.1-1.36-5.1-3.4h2.13c0,0.89,1.19,1.49,2.97,1.49
			C231.32,114.84,232.36,114.29,232.36,113.29z"/>
		<path class="st3" d="M238.74,116.54l4.35-10.62h3.19l4.36,10.62h-2.3l-0.87-2.13h-5.61l-0.87,2.13H238.74z M246.68,112.51
			l-1.91-4.68h-0.21l-1.91,4.68H246.68z"/>
		<path class="st3" d="M255.52,105.92h2.12v8.71h6.37v1.91h-8.5V105.92z"/>
		<path class="st3" d="M271.24,107.83v2.44h6.16v1.91h-6.16v2.44h8.29v1.91h-10.41v-10.62h10.41v1.91H271.24z"/>
		<path class="st3" d="M292.59,113.29c0-0.85-0.93-1.21-3.06-1.21c-3.36,0-4.8-0.89-4.8-3.04c0-2.17,1.7-3.33,4.89-3.33
			c2.93,0,4.89,1.36,4.89,3.4h-2.12c0-0.89-1.11-1.49-2.76-1.49c-1.81,0-2.76,0.49-2.76,1.42c0,0.81,0.85,1.13,2.87,1.13
			c3.51,0,4.99,0.96,4.99,3.12c0,2.25-1.79,3.46-5.1,3.46c-3.06,0-5.1-1.36-5.1-3.4h2.13c0,0.89,1.19,1.49,2.97,1.49
			C291.55,114.84,292.59,114.29,292.59,113.29z"/>
	</g>
</g>
</svg>
